<?xml version="1.0" encoding="utf-8"?>
<!-- Generator: Adobe Illustrator 22.1.0, SVG Export Plug-In . SVG Version: 6.00 Build 0)  -->
<svg version="1.1" id="Layer_1" xmlns="http://www.w3.org/2000/svg" xmlns:xlink="http://www.w3.org/1999/xlink" x="0px" y="0px"
	 viewBox="0 0 3660 535" style="enable-background:new 0 0 3660 535;" xml:space="preserve">
<style type="text/css">
	.st0{fill:#DEC8AF;}
	.st1{fill:#66433D;}
	.st2{fill:#80534D;}
	.st3{opacity:0.55;fill:#916F5D;}
	.st4{opacity:0.24;fill:#916F5D;}
	.st5{opacity:0.38;fill:#F2F2F2;}
	.st6{fill:#E6A117;}
	.st7{opacity:0.5;fill:#AE9474;}
	.st8{fill:#3E80A1;}
	.st9{fill:#316680;}
	.st10{opacity:0.34;fill:#FFFFFF;}
	.st11{fill:#99645C;}
	.st12{fill:#B3756B;}
	.st13{fill:#458EB3;}
	.st14{fill:#847465;}
	.st15{fill:#C4BAA4;}
	.st16{fill:#CCD8D7;}
		#gancu{
-webkit-animation: gancu-anim 5s linear infinite;
          animation: gancu-anim 0.9s linear infinite;
  -webkit-transform-origin: center;
      -ms-transform-origin: center;
          transform-origin: center;
  transform-box: fill-box;
}
@-webkit-keyframes gancu-anim {
  0% {
    -webkit-transform: rotate(0deg) translate(0);
            transform: rotate(0deg) translate(0)
  }
  25% {
    -webkit-transform: rotate(2deg) translateY(5px);
            transform: rotate(10deg) translateY(5px)
  }
  50% {
    -webkit-transform: rotate(-2deg) translateY(-5px);
            transform: rotate(-10deg) translateY(-30px)
  }
  75% {
    -webkit-transform: rotate(-2deg) translateY(5px);
            transform: rotate(-2deg) translateY(5px)
  }
  100% {
    -webkit-transform: rotate(0deg) translate(0);
            transform: rotate(0deg) translate(0)
  }
</style>
<g>
	<g id="gancu">
		<polygon class="st0" points="60.3,186.4 77,161.1 408.6,379.3 391.9,404.6 		"/>
		<path class="st1" d="M440.4,392l-18-11.8c25.3-24.4,51.9-78.2,59.4-101.1l8.6-4.8C489,298.5,470.3,343.1,440.4,392z"/>
		<path class="st1" d="M364.2,492.6c-4.4-3.3-7.6-6.4-10-9.3c-5.6-6.4-6.8-11-6.8-11c16.2-8.1,30.7-21.3,39.9-32.9l0.1-0.1
			c2.4-3,4.4-5.9,6-8.5c0,0,0,0,0,0c4-6.7,5.3-11.7,2.9-13.4l19.2,12.6C397.9,454.8,380.2,476.3,364.2,492.6z"/>
		
			<rect x="391.2" y="381.8" transform="matrix(0.5496 -0.8355 0.8355 0.5496 -149.2008 526.7527)" class="st2" width="45.4" height="40"/>
		<path class="st3" d="M402.3,447.9l-9.6-16c0.3-0.4,0.5-0.8,0.7-1.2c0,0,0,0,0,0c4-6.7,5.3-11.7,2.9-13.4l19.2,12.6
			C411.1,436.2,406.7,442.2,402.3,447.9z"/>
		<polygon class="st4" points="405.9,377.5 391.3,367.9 344,373.1 389.3,402.8 		"/>
		<polygon class="st5" points="404.4,386.7 410.3,377.7 437.9,395.9 432,404.9 		"/>
	</g>
	<g>
		<g>
			<path class="st0" d="M740.1,493.7c-14.7-12-18.4-41.2-17.4-57.8c1.3-13.1,10.1-29.9,17.6-38.1c13-14.3,28.9-21.6,44.3-28.6
				c13.6-6.2,26.3-12,36.6-22.3c20-20,26.7-45,18.9-70.3c-9.3-30.2-37.2-53.8-71-60.1l2.9-15.3c39.4,7.4,72,35.2,83,70.9
				c9.5,30.6,1.2,62-22.8,85.9c-12.3,12.3-26.9,19-41.1,25.5c-14.6,6.7-28.4,13-39.3,24.9c-6.3,6.9-12.8,20.7-13.6,28.9
				c-1,15.9,3.5,37.7,11.7,44.5L740.1,493.7z"/>
		</g>
		<polygon class="st6" points="556.7,535 598.9,474.1 650.4,480.4 715.9,445.4 792.4,467.9 822.1,517.8 822.1,535 		"/>
		<polygon class="st6" points="556.7,534.6 505.2,469 436.4,437.7 396.2,458.9 367.3,430.1 298.9,458.9 268.1,499.5 222.6,534.6 		
			"/>
		<polygon class="st7" points="352.9,534.6 396.2,458.9 367.3,430.1 339.3,458.9 319.9,534.6 		"/>
		<polygon class="st7" points="679.1,535 721.2,474.1 715.9,445.4 792.4,467.9 822.1,517.8 822.1,535 		"/>
		<g>
			<polygon class="st1" points="726.7,98.9 722.1,113.6 722,113.6 704.5,169.4 757.9,186.2 775.5,130.4 780.1,115.7 827.7,99 
				841.1,56.5 830.7,53.3 818.9,90.7 769.7,107.2 763.6,126.7 734,117.4 740.1,97.9 709.1,56.2 720.9,18.8 710.5,15.5 697.2,58 			
				"/>
			
				<rect x="756.3" y="-3.8" transform="matrix(0.2998 -0.954 0.954 0.2998 488.0254 772.4389)" class="st0" width="27.8" height="115.1"/>
			<polygon class="st8" points="729.6,314.5 654.3,290.9 698.2,151.3 773.5,175 			"/>
			<polygon class="st9" points="696,392.2 637.5,373.8 662.7,293.5 721.3,311.9 			"/>
			<polygon class="st0" points="683.3,388.1 645.8,507.3 636.5,521.6 612.2,514 612.8,497 650.3,377.7 			"/>
			
				<rect x="654.4" y="374.3" transform="matrix(0.2999 -0.954 0.954 0.2999 85.9078 909.4921)" class="st2" width="16.4" height="43.9"/>
			<polygon class="st2" points="674.4,431.8 632.5,418.7 637.5,403 679.3,416.2 			"/>
			<polygon class="st2" points="667.7,453 625.9,439.9 630.8,424.3 672.6,437.4 			"/>
			<polygon class="st0" points="616.6,497.7 616.1,510.9 635,516.8 642.3,505.7 			"/>
			<polygon class="st10" points="686.8,292.4 665.2,285.6 703.9,162.6 725.5,169.3 			"/>
			
				<rect x="630.1" y="329.6" transform="matrix(0.2998 -0.954 0.954 0.2998 143.0345 871.8176)" class="st10" width="70.7" height="17.8"/>
			<polygon class="st9" points="771.4,229.1 749.4,222.2 760,188.7 781.9,195.6 			"/>
		</g>
		<polygon class="st7" points="556.7,535 505.2,469.5 436.4,438.1 437,459.3 370.4,535 		"/>
		<polygon class="st6" points="630,504.6 572.3,476.6 511.1,512.8 505.2,535 661.2,535 		"/>
		<polygon class="st7" points="630,504.6 572.3,476.6 579.1,512.8 573.1,535 661.2,535 		"/>
	</g>
</g>
<g>
	<g>
		<polygon class="st2" points="2704.6,460.4 2748.9,377.6 2844.9,428.9 2800.6,511.7 2733.6,521.5 		"/>
		<path class="st11" d="M2753.9,455.4l44.6-83.5l23.4,12.5l-44.6,83.5c-3,5.7-10.7,7.5-17.2,4c-3.2-1.7-5.5-4.4-6.6-7.4
			C2752.4,461.5,2752.4,458.3,2753.9,455.4z"/>
		<path class="st12" d="M2762.1,468.3l46.2-86.5l7.5,4l-42.7,79.8C2771.2,469.4,2766.2,470.5,2762.1,468.3z"/>
		<polygon class="st0" points="2894.8,196.4 2914.5,206.9 2820.1,383.5 2800.4,373 		"/>
		<polygon class="st1" points="2900.7,172.4 2896.2,180.8 2896.2,180.8 2879.1,212.7 2909.7,229 2926.7,197.1 2931.2,188.7 
			2962.1,184 2975.1,159.7 2969.1,156.6 2957.7,177.9 2925.9,182.3 2919.9,193.5 2903,184.4 2908.9,173.3 2894.9,144.4 2906.3,123 
			2900.4,119.8 2887.4,144.1 		"/>
		<polygon class="st0" points="2898.1,138.5 2960.9,172 2967.8,159.1 2905,125.6 		"/>
		<path class="st5" d="M2797.5,508.3l-61.5,8.9l-26.9-56.2l8.8,10.6l5.4-1.5l-0.1,11.4l8-6.4l-3,19l12.7-12l-6.3,23.1l15.9-17.8
			l-5.3,18.4c0,0,13.1-10,13.6-10.6c0.5-0.6-0.7,5.5-0.7,5.5l8.6-4.3l-2.2,10.8l14.4-4.9l-0.9,6.1L2797.5,508.3z"/>
		<polygon class="st1" points="2843.5,438.7 2802.7,416.9 2807.1,408.7 2847.9,430.5 		"/>
		
			<rect x="2759.4" y="367.8" transform="matrix(0.4716 -0.8818 0.8818 0.4716 1115.8368 2643.9902)" class="st1" width="9.3" height="46.3"/>
		<polygon class="st4" points="2820.1,383.5 2800.4,373 2805.2,364.1 2822.5,379 		"/>
	</g>
	<g>
		<polygon class="st6" points="2552.2,535 2717.7,423.7 2784.5,478.8 2876.7,377 2941,392.9 2982.9,351 3056.2,323.3 3167.5,407.2 
			3186.6,478.8 3278.7,535 		"/>
		<polygon class="st7" points="2717.7,423.7 2758.6,519.7 2784.5,478.8 		"/>
		<polygon class="st7" points="2876.7,377 2925,454.6 2904.7,535 2961.9,535 2961.9,436.7 2941,392.9 		"/>
		<polygon class="st7" points="3056.2,323.3 3082.5,395.1 3065,445.1 3090.4,492.7 3022.3,535 3278.7,535 3186.6,478.8 
			3167.5,407.2 		"/>
	</g>
</g>
<g>
	<polygon class="st8" points="3505.3,469.4 3105.8,469.4 3088.4,209.8 3522,209.8 	"/>
	<rect x="3073.7" y="197.8" class="st13" width="463.1" height="34.8"/>
	<rect x="3077.7" y="448.9" class="st0" width="457.7" height="41.1"/>
	<g>
		<path class="st0" d="M3275.4,469.4c0,36.2-29.4,65.6-65.6,65.6c-36.2,0-65.6-29.4-65.6-65.6c0-36.2,29.4-65.6,65.6-65.6
			C3246.1,403.8,3275.4,433.2,3275.4,469.4z"/>
		<path class="st14" d="M3256.7,469.4c0,25.9-20.9,46.8-46.8,46.8c-25.9,0-46.8-21-46.8-46.8c0-25.9,21-46.8,46.8-46.8
			C3235.7,422.6,3256.7,443.6,3256.7,469.4z"/>
		<path class="st15" d="M3249.3,469.4c0,21.8-17.7,39.5-39.5,39.5c-21.8,0-39.5-17.7-39.5-39.5c0-21.8,17.7-39.5,39.5-39.5
			C3231.6,430,3249.3,447.6,3249.3,469.4z"/>
		<path class="st14" d="M3226.6,469.4c0,9.2-7.5,16.7-16.7,16.7c-9.2,0-16.7-7.5-16.7-16.7c0-9.2,7.5-16.7,16.7-16.7
			C3219.1,452.7,3226.6,460.2,3226.6,469.4z"/>
		<path class="st0" d="M3468.8,469.4c0,36.2-29.4,65.6-65.6,65.6c-36.2,0-65.6-29.4-65.6-65.6c0-36.2,29.4-65.6,65.6-65.6
			C3439.4,403.8,3468.8,433.2,3468.8,469.4z"/>
		<path class="st14" d="M3450.1,469.4c0,25.9-21,46.8-46.9,46.8c-25.9,0-46.9-21-46.9-46.8c0-25.9,21-46.8,46.9-46.8
			C3429.1,422.6,3450.1,443.6,3450.1,469.4z"/>
		<path class="st15" d="M3442.7,469.4c0,21.8-17.7,39.5-39.5,39.5c-21.8,0-39.5-17.7-39.5-39.5c0-21.8,17.7-39.5,39.5-39.5
			C3425,430,3442.7,447.6,3442.7,469.4z"/>
		<path class="st14" d="M3419.9,469.4c0,9.2-7.5,16.7-16.7,16.7c-9.2,0-16.7-7.5-16.7-16.7c0-9.2,7.5-16.7,16.7-16.7
			C3412.4,452.7,3419.9,460.2,3419.9,469.4z"/>
	</g>
	<g>
		<path class="st14" d="M3561.4,438.8c-1.4,13.2-12.5,23.4-26,23.4v16c22.4,0,40.7-17.5,42.1-39.5H3561.4z"/>
	</g>
	<path class="st14" d="M3583,438.8c0,7.5-6.1,13.5-13.5,13.5c-7.5,0-13.5-6-13.5-13.5c0-7.5,6-13.5,13.5-13.5
		C3576.9,425.3,3583,431.3,3583,438.8z"/>
	<path class="st16" d="M3516.3,490h-50.7c2.1-6.5,3.3-13.4,3.3-20.5c0-7.2-1.1-14.1-3.3-20.6c-2.6-7.8-6.6-15-11.7-21.1l15,14.9
		l6.3,6.3l20.6,20.6L3516.3,490z"/>
	<path class="st16" d="M3322.4,490h-50.1c2.2-6.5,3.3-13.4,3.3-20.5h0.4l-0.4-0.4c-0.1-7-1.2-13.8-3.3-20.2
		c-2.2-6.8-5.5-13-9.7-18.6l18.6,18.6l20.6,20.6L3322.4,490z"/>
	<polygon class="st9" points="3520.6,232.5 3519.2,253.8 3506.7,448.8 3475.1,448.8 3468.8,442.6 3468.8,253.8 3091.5,253.8 
		3090,232.5 	"/>
	<polygon class="st6" points="3104.4,197.8 3131.4,158 3163,168.5 3196,128.7 3212.5,128.7 3262.6,97.9 3292.5,106.9 3330.4,73.9 
		3380.6,98.7 3403.2,88.9 3429.4,106.2 3442.7,146 3468.8,135.8 3494.7,168.5 3513.5,197.8 	"/>
	<polygon class="st7" points="3330.4,73.9 3364.9,132.5 3403.2,127.2 3394.9,159.5 3330.4,170 3316.1,197.8 3513.5,197.8 
		3494.7,168.5 3468.8,135.8 3442.7,146 3429.4,106.2 3403.2,88.9 3380.6,98.7 	"/>
</g>
<g>
	<polygon class="st6" points="1529.8,535 1460,499.8 1413.1,462.6 1346.8,498.8 1297.6,478.2 1259.1,451.5 1179.6,486.4 
		1162.2,521.3 1120.3,535 	"/>
	<polygon class="st7" points="1247.1,451.5 1261.5,497.1 1241.1,523.2 1233.4,535 1348.1,535 1334.8,498.8 1284.6,477.5 	"/>
	<polygon class="st7" points="1401.1,462.6 1437,512.8 1419.1,535 1517.8,535 1448,499.8 	"/>
</g>
</svg>
